# xmcd
#
# Track frame offsets:
#	150
#	17407
#	35213
#	50678
#	63285
#	82236
#	94299
#	105626
#	140871
#	164892
#
# Disc length: 2329 seconds
#
# Revision: 1
# Processed by: cddbd v1.5.1PL0 Copyright (c) Steve Scherf et al.
# Submitted via: audiograbber 1.83.01
#
DISCID=9509170a
DTITLE=Wiener Linien Blues Bamnd - Gilley's Club
DYEAR=2004
DGENRE=Blues
TTITLE0=Long Way To Go
TTITLE1=I'm Crying
TTITLE2=Shake For Me
TTITLE3=Mr. Bluesgun
TTITLE4=My Baby Is Gone
TTITLE5=Scratch 'N' Sniff
TTITLE6=Life By The Drop
TTITLE7=Voodoo Chile
TTITLE8=Bad Blood
TTITLE9=Gilley's Club
EXTD=
EXTT0=
EXTT1=
EXTT2=
EXTT3=
EXTT4=
EXTT5=
EXTT6=
EXTT7=
EXTT8=
EXTT9=
PLAYORDER=
